<svg width="66" height="66" viewBox="0 0 66 66" fill="none" xmlns="http://www.w3.org/2000/svg">
<path d="M34.7731 37.5735H43.0985C45.4659 37.5735 46.9653 36.2706 46.9653 34.1781C46.9653 32.204 45.4659 30.7827 43.0985 30.7827H34.7731C34.4969 30.7827 34.2602 31.0196 34.2602 31.2565V37.0997C34.2996 37.3761 34.4969 37.5735 34.7731 37.5735Z" fill="#34313F"/>
<path d="M34.7731 51.0367H43.3747C46.0183 51.0367 47.5966 49.6943 47.5966 47.3254C47.5966 45.2724 46.0972 43.6142 43.3747 43.6142H34.7731C34.4969 43.6142 34.2602 43.8511 34.2602 44.0879V50.5234C34.2996 50.8393 34.4969 51.0367 34.7731 51.0367Z" fill="#34313F"/>
<path d="M65.234 0.145109L40.6129 24.7025H44.6375C50.9111 24.7025 54.6201 28.6507 54.6201 32.9541C54.6201 36.3495 52.3316 38.8369 49.8852 39.9423C49.4907 40.1003 49.4907 40.653 49.9247 40.8109C52.7656 41.9164 54.7779 44.8775 54.7779 48.3519C54.7779 53.2476 51.503 57.1562 45.1504 57.1562H27.7105C27.4343 57.1562 27.1975 56.9193 27.1975 56.6824V38.0867L0.169548 65.013C-0.185564 65.3683 0.0511775 66 0.564117 66H65.5496C65.7864 66 65.9837 65.8026 65.9837 65.5658V0.500439C66.102 0.0661441 65.5496 -0.170742 65.234 0.145109Z" fill="#34313F"/>
</svg>
